<?xml version="1.0" encoding="UTF-8" standalone="no"?>
<!-- Created with Inkscape (http://www.inkscape.org/) -->

<svg
   width="120.60828mm"
   height="95.550919mm"
   viewBox="0 0 120.60828 95.550919"
   version="1.1"
   id="svg5"
   xml:space="preserve"
   sodipodi:docname="dassie.svg"
   xmlns:inkscape="http://www.inkscape.org/namespaces/inkscape"
   xmlns:sodipodi="http://sodipodi.sourceforge.net/DTD/sodipodi-0.dtd"
   xmlns="http://www.w3.org/2000/svg"
   xmlns:svg="http://www.w3.org/2000/svg"><sodipodi:namedview
     id="namedview7"
     pagecolor="#505050"
     bordercolor="#eeeeee"
     borderopacity="1"
     inkscape:showpageshadow="0"
     inkscape:pageopacity="0"
     inkscape:pagecheckerboard="0"
     inkscape:deskcolor="#505050"
     inkscape:document-units="mm"
     showgrid="false" /><defs
     id="defs2" /><g
     inkscape:label="Layer 1"
     inkscape:groupmode="layer"
     id="layer1"
     transform="translate(-44.695859,-53.726546)"><g
       id="g2217"><path
         style="fill:#ffffff;fill-opacity:1;stroke-width:0.264583"
         d="m 44.912813,145.27757 v -3.96875 h 1.955064 c 2.64791,0 3.204311,0.43112 3.204311,2.48282 0,1.85359 -0.590479,2.54162 -2.351614,2.74013 l -1.220261,0.13754 v 1.28851 c 0,1.25528 -0.02047,1.2885 -0.79375,1.2885 h -0.79375 z m 3.285651,-0.42518 c 0.494453,-0.18974 0.560983,-1.44318 0.101015,-1.90315 -0.174625,-0.17463 -0.650875,-0.3175 -1.058333,-0.3175 -0.701635,0 -0.740833,0.063 -0.740833,1.19062 0,1.08288 0.0579,1.19063 0.639818,1.19063 0.351901,0 0.828151,-0.0723 1.058333,-0.1606 z m 3.858099,0.42518 v -3.96875 h 1.955064 c 2.576301,0 3.123266,0.40224 3.152169,2.31808 0.01487,0.98624 -0.117522,1.51801 -0.476808,1.91502 -0.488595,0.53989 -0.484799,0.57533 0.214209,2.00058 0.391388,0.79803 0.711616,1.50786 0.711616,1.57739 0,0.0695 -0.40799,0.12643 -0.906645,0.12643 -0.841822,0 -0.954281,-0.10404 -1.572864,-1.45521 -0.391236,-0.85457 -0.836067,-1.4552 -1.07773,-1.4552 -0.322413,0 -0.411511,0.31507 -0.411511,1.4552 0,1.44051 -0.008,1.45521 -0.79375,1.45521 h -0.79375 z m 3.59638,-1.19406 c 0.217438,-0.86634 -0.285628,-1.45177 -1.247526,-1.45177 -0.711859,0 -0.761354,0.0688 -0.761354,1.05833 0,1.03203 0.02289,1.05834 0.921001,1.05834 0.763011,0 0.949627,-0.11406 1.087879,-0.6649 z m 3.54737,1.19406 v -3.96875 h 2.248958 c 2.2225,0 2.248959,0.008 2.248959,0.66146 0,0.62629 -0.07826,0.66146 -1.471973,0.66146 h -1.471972 l 0.08291,0.8599 c 0.07782,0.80711 0.151926,0.86488 1.207389,0.94125 0.993791,0.0719 1.124479,0.15647 1.124479,0.7276 0,0.5908 -0.103524,0.64625 -1.206598,0.64625 H 60.75587 l 0.08212,0.99219 0.08212,0.99218 1.389062,0.08 c 1.275588,0.0734 1.389063,0.13288 1.389063,0.7276 0,0.63633 -0.03926,0.64763 -2.248959,0.64763 h -2.248958 z m 6.35,0 v -3.96875 h 1.011264 1.011261 l 0.762834,2.24757 c 0.419557,1.23617 0.850545,2.1589 0.957752,2.05053 0.107206,-0.10838 0.534424,-1.09002 0.94937,-2.18143 0.737423,-1.93959 0.776586,-1.98623 1.73515,-2.06649 l 0.980702,-0.0821 v 3.98472 3.98472 h -0.661458 c -0.659138,0 -0.661458,-0.009 -0.661458,-2.51354 0,-1.38245 -0.09514,-2.51354 -0.211431,-2.51354 -0.116287,0 -0.361678,0.44648 -0.545312,0.99219 -1.232482,3.66257 -1.835602,3.86791 -2.914214,0.99218 l -0.694668,-1.85208 -0.07608,2.4474 -0.07607,2.44739 h -0.783823 -0.78382 z m 9.525,0 v -3.96875 h 0.79375 0.79375 v 3.96875 3.96875 h -0.79375 -0.79375 z m 4.3536,3.31932 c -0.620501,-0.6205 -0.649433,-0.79731 -0.649433,-3.96875 v -3.31932 h 0.785606 0.785606 l 0.07429,3.24115 c 0.07237,3.15746 0.09004,3.24338 0.684165,3.3276 1.188794,0.16853 1.3745,-0.31225 1.3745,-3.55843 v -3.01032 h 0.814776 0.814776 l -0.08717,3.45528 c -0.08391,3.32583 -0.111953,3.47429 -0.74863,3.96286 -1.006536,0.7724 -3.013859,0.70456 -3.848484,-0.13007 z m 6.7589,-3.31932 v -3.96875 h 0.995403 0.995402 l 0.776721,2.24073 c 0.427196,1.23239 0.839412,2.17803 0.916033,2.10141 0.07662,-0.0766 0.505685,-1.05519 0.953465,-2.17458 0.793809,-1.98441 0.838605,-2.03732 1.792732,-2.11738 l 0.978578,-0.0821 v 3.98472 3.98472 H 92.934688 92.27323 v -2.69875 c 0,-1.60142 -0.09642,-2.59654 -0.237125,-2.44739 -0.130421,0.13824 -0.532572,1.08479 -0.89367,2.10343 -0.885565,2.49816 -1.467432,2.61803 -2.313773,0.47668 -0.333682,-0.84426 -0.707189,-1.64812 -0.830019,-1.78636 -0.123531,-0.13903 -0.22333,0.77728 -0.22333,2.05052 v 2.30187 h -0.79375 -0.79375 z M 99.501,148.61046 c -0.676409,-0.58183 -0.747531,-0.81867 -0.836918,-2.78701 -0.151225,-3.33005 0.58701,-4.51463 2.813538,-4.51463 1.4233,0 2.05248,0.32297 2.56683,1.31762 0.52434,1.01397 0.51268,1.06363 -0.24982,1.06363 -0.35719,0 -0.94589,-0.29645 -1.30822,-0.65879 -0.69728,-0.69728 -1.33725,-0.66935 -1.94495,0.0849 -0.19032,0.23621 -0.33073,1.15788 -0.33073,2.17097 0,1.36954 0.10746,1.85776 0.48385,2.19839 0.62889,0.56914 1.18076,0.55442 1.7241,-0.046 0.58947,-0.65136 0.55206,-1.10364 -0.0913,-1.10364 -0.41369,0 -0.52917,-0.17639 -0.52917,-0.80825 0,-0.79915 0.0141,-0.80734 1.25677,-0.7276 l 1.25677,0.0806 0.0768,2.18281 c 0.0768,2.18138 0.0764,2.18281 -0.59531,2.18281 -0.36969,0 -0.67216,-0.12325 -0.67216,-0.27389 0,-0.1888 -0.159,-0.1888 -0.51178,0 -0.90595,0.48485 -2.31458,0.32082 -3.10837,-0.36197 z m 6.79515,-3.33289 v -3.96875 h 1.95506 c 2.57338,0 3.15558,0.42299 3.18415,2.31338 0.0147,0.96964 -0.12013,1.4896 -0.49302,1.90191 -0.5095,0.56337 -0.50808,0.57783 0.19844,2.01839 0.39139,0.79803 0.71162,1.50786 0.71162,1.57739 0,0.0695 -0.40799,0.12643 -0.90665,0.12643 -0.84182,0 -0.95428,-0.10404 -1.57286,-1.45521 -0.39124,-0.85457 -0.83607,-1.4552 -1.07773,-1.4552 -0.32241,0 -0.41151,0.31507 -0.41151,1.4552 0,1.44051 -0.008,1.45521 -0.79375,1.45521 h -0.79375 z m 3.65833,-1.27133 c 0.11817,-0.83358 -0.39716,-1.3745 -1.30948,-1.3745 -0.71374,0 -0.76135,0.0672 -0.76135,1.07431 v 1.0743 l 0.99218,-0.0821 c 0.80473,-0.0666 1.00853,-0.19734 1.07865,-0.69199 z m 3.49264,4.92693 c 0.004,-0.19157 0.46041,-1.95565 1.0143,-3.92018 l 1.00707,-3.57188 h 1.01254 1.01254 l 0.99909,3.3073 c 1.50147,4.97031 1.45794,4.54665 0.45716,4.44923 -0.66534,-0.0648 -0.89376,-0.23268 -1.01354,-0.74507 -0.13902,-0.59474 -0.28563,-0.66146 -1.45367,-0.66146 -1.16803,0 -1.31467,0.0667 -1.45375,0.66146 -0.11062,0.47306 -0.35894,0.68531 -0.87182,0.74518 -0.46148,0.0539 -0.71457,-0.0404 -0.70992,-0.26458 z m 3.95751,-2.92799 c -0.0328,-0.53987 -0.77342,-2.43417 -0.93703,-2.39659 -0.16539,0.038 -0.87816,1.9213 -0.90702,2.39659 -0.002,0.0364 0.4127,0.0661 0.92203,0.0661 0.50932,0 0.92423,-0.0298 0.92202,-0.0661 z m 4.64279,2.64583 c -0.42631,-1.59232 -0.70396,-2.60852 -1.21087,-4.43177 -0.30344,-1.09141 -0.61156,-2.19273 -0.68472,-2.4474 -0.10795,-0.37577 0.0352,-0.46302 0.75982,-0.46302 h 0.89282 l 0.58287,2.31511 c 0.32058,1.2733 0.58168,2.52346 0.58021,2.77812 -0.002,0.25466 0.0995,0.46302 0.22441,0.46302 0.12489,0 0.50456,-1.25015 0.84371,-2.77812 l 0.61663,-2.77813 h 0.9044 c 0.63067,0 0.86468,0.10351 0.77317,0.34197 -0.0722,0.18809 -0.50717,1.76567 -0.96665,3.50573 -0.45949,1.74007 -0.89745,3.37212 -0.97325,3.62678 -0.10041,0.33734 -0.4154,0.46302 -1.16049,0.46302 -0.83694,0 -1.05162,-0.10812 -1.18206,-0.59531 z m 5.94456,-3.37344 v -3.96875 h 2.24896 c 2.2225,0 2.24896,0.008 2.24896,0.66146 0,0.62629 -0.0783,0.66146 -1.47197,0.66146 h -1.47198 l 0.0829,0.8599 c 0.0757,0.78504 0.16928,0.86704 1.0751,0.94201 0.85296,0.0706 0.99219,0.17269 0.99219,0.7276 0,0.57668 -0.11282,0.64549 -1.05834,0.64549 h -1.05833 v 1.05833 1.05834 h 1.45521 c 1.37583,0 1.45521,0.0361 1.45521,0.66145 0,0.65368 -0.0265,0.66146 -2.24896,0.66146 h -2.24896 z m 6.35,0 v -3.96875 h 0.78561 0.7856 l 0.0743,3.24115 0.0743,3.24114 1.25677,0.0807 c 1.13467,0.0728 1.25677,0.14349 1.25677,0.7276 0,0.63232 -0.0479,0.64696 -2.11666,0.64696 H 134.342 Z m 9.66108,3.63802 c -0.0615,-0.1819 -0.2337,-0.98557 -0.38258,-1.78593 -0.14889,-0.80037 -0.45199,-2.2886 -0.67356,-3.3072 -0.53549,-2.4617 -0.52798,-2.51364 0.36349,-2.51364 0.75937,0 0.76941,0.0206 1.10269,2.26076 0.31784,2.13637 0.6528,2.96568 0.88366,2.18778 0.0567,-0.19112 0.30792,-1.27023 0.55822,-2.39802 0.4382,-1.97441 0.48321,-2.05052 1.21288,-2.05052 0.57192,0 0.78888,0.14602 0.88453,0.59532 0.0697,0.32742 0.28033,1.33216 0.46806,2.23277 0.18773,0.9006 0.45938,1.67451 0.60367,1.71979 0.14429,0.0453 0.43466,-0.95947 0.64527,-2.23277 0.37556,-2.27059 0.39723,-2.31511 1.12672,-2.31511 0.92081,0 0.92084,-0.0237 -0.006,4.36563 l -0.7265,3.43958 -0.91852,0.0784 c -0.90901,0.0776 -0.92177,0.0639 -1.2329,-1.32291 -0.17291,-0.77071 -0.39311,-1.84777 -0.48932,-2.39347 -0.0962,-0.5457 -0.26751,-0.99219 -0.38064,-0.99219 -0.11313,0 -0.28286,0.44649 -0.37717,0.99219 -0.65868,3.81116 -0.64097,3.77031 -1.63427,3.77031 -0.50357,0 -0.96593,-0.14883 -1.02748,-0.33073 z m 8.07272,-0.11471 c 0.004,-0.26433 0.45561,-2.02841 1.00425,-3.92018 l 0.99754,-3.43959 h 1.03601 1.03602 l 0.60767,2.11667 c 0.33422,1.16417 0.83766,2.92735 1.11875,3.91818 l 0.51108,1.80151 -0.83351,-0.0817 c -0.63885,-0.0626 -0.86963,-0.23621 -0.98814,-0.74318 -0.13902,-0.59474 -0.28563,-0.66146 -1.45368,-0.66146 -1.16802,0 -1.31466,0.0667 -1.45374,0.66146 -0.19474,0.83276 -1.59332,1.14063 -1.58225,0.34831 z m 3.48892,-4.17513 c -0.44009,-1.58116 -0.70029,-1.67882 -0.92392,-0.34679 -0.08,0.47648 -0.22785,1.07468 -0.32855,1.32934 -0.15315,0.38725 -0.0327,0.46302 0.73586,0.46302 h 0.91897 z m 3.64811,4.49266 c 0,-0.0704 0.44581,-1.02887 0.99068,-2.13003 l 0.99067,-2.00212 -0.97049,-1.83872 -0.97049,-1.83872 h 0.87713 c 0.77318,0 0.92625,0.12276 1.29159,1.03583 0.22795,0.56971 0.51766,1.09962 0.6438,1.17758 0.12614,0.078 0.4868,-0.38817 0.80146,-1.03583 0.48981,-1.00818 0.68727,-1.17758 1.37262,-1.17758 h 0.80052 l -0.93251,1.85172 -0.9325,1.85171 1.06442,2.11704 1.06443,2.11703 h -0.79225 c -0.6857,0 -0.88307,-0.17923 -1.46758,-1.33271 -0.37143,-0.73299 -0.78677,-1.26384 -0.92297,-1.17966 -0.13619,0.0842 -0.48244,0.68389 -0.76945,1.33271 -0.45356,1.02534 -0.6276,1.17966 -1.33045,1.17966 -0.44474,0 -0.80863,-0.0576 -0.80863,-0.12791 z M 98.981754,134.70166 c -3.70636,-0.79395 -6.251787,-3.59601 -6.634414,-7.30332 l -0.148143,-1.43535 h 3.017623 3.017621 l 0.470336,1.32426 c 0.570064,1.60505 1.354483,2.17385 3.183973,2.30874 2.46825,0.18199 3.97616,-1.36231 3.35759,-3.43865 -0.37435,-1.25658 -1.28778,-1.86933 -5.40814,-3.62787 -1.732855,-0.73957 -3.606409,-1.67985 -4.163452,-2.0895 -2.417998,-1.77822 -3.363614,-4.09021 -3.024939,-7.39586 0.456004,-4.45086 3.662315,-7.10451 8.931231,-7.39177 5.5504,-0.30261 9.41676,2.56744 9.91792,7.36219 l 0.16606,1.58884 -3.13704,-0.0749 -3.13704,-0.0749 -0.18231,-0.89347 c -0.29099,-1.42615 -1.28193,-2.21723 -2.9302,-2.33921 -1.77136,-0.13108 -2.996811,0.54343 -3.331109,1.83353 -0.531273,2.05024 0.304453,2.83561 5.291769,4.97293 4.93762,2.11601 6.31132,3.24413 7.22376,5.93233 0.59074,1.74044 0.43235,4.61049 -0.34632,6.27493 -0.73575,1.5727 -2.62633,3.23529 -4.45846,3.92078 -1.64313,0.61477 -5.93175,0.91994 -7.676316,0.54623 z m 22.754166,2.7e-4 c -3.81477,-0.8181 -6.22353,-3.56119 -6.80257,-7.74675 l -0.13727,-0.99219 h 3.15333 3.15332 l 0.15357,0.7276 c 0.52657,2.49484 2.83018,3.62054 5.29849,2.58921 1.49815,-0.62596 1.97793,-2.40579 1.04032,-3.85925 -0.4827,-0.74826 -1.91299,-1.56923 -5.0311,-2.88777 -4.40156,-1.86127 -5.80526,-3.00766 -6.74598,-5.5094 -0.9763,-2.59639 -0.51034,-5.87101 1.14521,-8.04819 3.91152,-5.14397 14.43022,-4.213 16.54233,1.46409 0.28002,0.75268 0.59448,1.99746 0.69879,2.76619 l 0.18965,1.39768 -3.13487,-0.0748 -3.13487,-0.0748 -0.0799,-0.68791 c -0.0439,-0.37836 -0.40555,-1.07801 -0.80358,-1.55478 -0.59875,-0.71721 -0.95424,-0.88902 -2.05911,-0.99519 -1.67591,-0.16103 -2.86684,0.40505 -3.45736,1.64337 -0.36471,0.76482 -0.37639,1.01692 -0.0802,1.73193 0.44952,1.08523 1.55355,1.78783 5.36594,3.41489 4.92264,2.10088 6.40887,3.36128 7.2334,6.13433 1.2375,4.16186 -0.89645,8.54299 -4.8886,10.03665 -1.65534,0.61934 -5.83583,0.90743 -7.61892,0.52503 z m -76.952608,-0.56718 c -0.07721,-0.2016 -0.109429,-6.5578 -0.07159,-14.12489 l 0.0688,-13.75833 5.55625,0.006 c 4.363709,0.005 5.9905,0.10677 7.579495,0.475 3.305553,0.76603 5.45764,2.53763 6.64723,5.47199 0.55339,1.36505 0.589942,1.84865 0.589942,7.80521 0,5.42901 -0.06896,6.54761 -0.475451,7.71247 -1.075087,3.0808 -2.87247,4.84904 -6.02878,5.93102 -1.493092,0.51183 -2.423123,0.59806 -7.711681,0.71499 -4.970383,0.10989 -6.038186,0.0694 -6.154214,-0.23359 z m 11.649705,-6.01862 c 0.581126,-0.32661 1.352204,-1.0248 1.713508,-1.55153 0.633484,-0.92354 0.659842,-1.13508 0.739013,-5.93095 0.07405,-4.48579 0.03086,-5.0891 -0.440735,-6.15521 -0.727297,-1.64417 -2.008926,-2.2644 -5.091827,-2.46414 l -2.354747,-0.15255 v 8.539 8.53901 l 2.189099,-0.11489 c 1.623217,-0.0852 2.462226,-0.26841 3.245689,-0.70874 z m 10.175629,5.90762 c 0,-0.22325 0.704946,-2.87239 1.566548,-5.88698 2.283415,-7.98926 5.81261,-20.16179 6.134254,-21.15763 l 0.277735,-0.8599 h 3.948232 c 2.171528,0 3.948232,0.035 3.948232,0.0777 0,0.0428 0.904052,3.16815 2.009005,6.94532 1.104953,3.77716 2.106207,7.22476 2.225011,7.66132 0.118803,0.43657 1.039193,3.62267 2.045311,7.08024 1.006118,3.45756 1.770957,6.34483 1.699641,6.41614 -0.07131,0.0713 -1.474848,0.12967 -3.118964,0.12967 -3.459112,0 -3.140393,0.25263 -4.088942,-3.24115 l -0.628545,-2.3151 H 78.474384 74.3226 l -0.268859,0.85989 c -0.14787,0.47294 -0.519335,1.7231 -0.825471,2.77813 l -0.556614,1.91823 H 69.64015 c -2.548269,0 -3.031504,-0.0647 -3.031504,-0.40591 z m 13.996205,-13.28628 c -1.628055,-6.05515 -2.006222,-7.29485 -2.152899,-7.05752 -0.152246,0.24634 -2.118609,7.0356 -2.420093,8.35586 -0.0883,0.38666 -0.233315,0.89267 -0.322266,1.12447 -0.141911,0.36982 0.194951,0.42146 2.749135,0.42146 h 2.910864 z m 57.882269,13.5158 c -0.097,-0.097 -0.17639,-6.46686 -0.17639,-14.15521 v -13.97882 h 3.175 3.175 v 14.15521 14.15521 h -2.99861 c -1.64924,0 -3.07799,-0.0794 -3.175,-0.17639 z m 10.93611,-13.97882 v -14.15521 h 7.80521 7.80521 v 2.91042 2.91041 h -4.63021 -4.63021 v 2.91042 2.91042 h 3.83646 3.83646 v 2.77812 2.77813 h -3.90261 -3.9026 v 2.64583 2.64583 h 4.69635 4.69636 v 2.91042 2.91042 h -7.80521 -7.80521 z"
         id="path302"
         sodipodi:nodetypes="ccssscsscccsssscccssssssssssccsssssccssscssssccccssccccccsssscccssssscccccccccccccccsscccssscccssssccccsssscccccsssssscccccssssssssssscccsssccccscssssssssccssscssssscccssssssscscscsssscscsscssssssccssscsssscccssscccccccccsscccssssssssssssccssssssccsscccsscsssssssssscssscccssssscccccsssssscscccsssssssscccssssssscccscccssssssssccccssssssscccsccssssssccssssscccsscsscsssssssscccsscsccssssscssscccccssccccccccccccccccccccccccc" /><path
         d="m 67.678289,100.61073 c 0,-1.116429 1.159962,-2.270083 2.911887,-2.896048 3.710504,-1.325764 4.636659,-2.819593 5.189146,-8.369744 0.428885,-4.308489 0.651074,-5.34378 1.75649,-8.184413 1.960811,-5.03878 6.047073,-9.358413 10.960171,-11.586117 3.15431,-1.430232 5.434566,-1.827371 11.839557,-2.062022 6.49325,-0.237887 7.58046,-0.483381 9.98786,-2.255274 1.3335,-0.98148 3.92753,-3.934034 3.91218,-4.45289 -0.005,-0.174345 -0.17953,-0.614648 -0.3875,-0.97845 -0.49626,-0.868125 -0.49991,-3.266612 -0.006,-4.22093 1.17864,-2.279251 5.32768,-2.543687 7.31069,-0.465939 0.57607,0.603594 0.93174,0.687316 3.94051,0.927555 4.96194,0.396192 5.88385,0.797864 13.09688,5.706234 l 3.96875,2.700684 0.0814,1.11578 0.0814,1.115782 -1.13969,0.0088 -1.1397,0.0088 0.63765,0.530905 c 0.3507,0.292 0.80074,0.622181 1.00008,0.73374 0.30415,0.170209 0.29743,0.358426 -0.0418,1.170234 -1.00706,2.410243 -2.81359,3.538476 -6.88834,4.30199 -2.5033,0.469058 -3.91936,1.044903 -4.70451,1.913114 -0.25954,0.286997 -1.11947,2.146848 -1.91096,4.132998 -1.83681,4.609328 -2.99681,6.312144 -5.83798,8.569876 -2.67491,2.12561 -3.60435,3.67946 -3.77155,6.305328 -0.14709,2.309982 0.2553,3.286231 1.95202,4.73578 2.20797,1.886327 2.07228,2.012907 -2.06432,1.925797 l -3.50574,-0.0738 -1.51283,-3.042706 c -1.33804,-2.69118 -3.05233,-7.388209 -3.52455,-9.657031 l -0.16515,-0.793488 -0.36592,0.661197 c -0.20126,0.363659 -0.37015,1.275692 -0.3753,2.026741 -0.008,1.209566 -0.1076,1.448612 -0.86928,2.092809 -1.65874,1.402908 -6.30719,3.009974 -8.735001,3.019877 l -0.995942,0.0041 0.683379,-1.032656 c 1.523124,-2.301586 1.877884,-5.716776 0.872879,-8.402892 -0.683985,-1.828109 -2.442472,-3.798181 -4.075382,-4.56574 -1.578087,-0.741788 -2.044341,-0.696759 -0.892165,0.08616 1.654847,1.124501 3.055356,3.361211 3.695563,5.902079 0.643562,2.554199 -0.496475,5.606093 -3.057756,8.185662 l -1.616286,1.627825 3.190824,0.100756 c 2.358666,0.07448 3.411517,0.219146 4.037047,0.554709 0.91766,0.492279 2.0272,1.819193 2.3159,2.769618 l 0.18083,0.59531 H 85.687786 c -17.353783,-2e-5 -18.009497,-0.0179 -18.009497,-0.49006 z M 132.71287,64.270772 c 0.45486,-0.454854 0.39155,-1.68732 -0.11256,-2.19143 -0.65191,-0.651915 -1.98269,-0.420082 -2.45636,0.427921 -0.34873,0.624324 -0.34205,0.769368 0.064,1.389062 0.33626,0.513199 0.67736,0.691947 1.32041,0.691947 0.47686,0 1.0099,-0.142875 1.18452,-0.3175 z m -9.21316,36.153638 c -0.14144,-0.372 -0.86865,-1.322933 -1.61603,-2.113177 -1.31393,-1.389288 -1.36318,-1.496947 -1.48896,-3.254952 -0.1839,-2.570181 0.18499,-3.454664 2.1663,-5.194162 0.91547,-0.803742 1.74059,-1.461348 1.83359,-1.461348 0.093,0 0.17116,0.625078 0.17368,1.389064 0.003,0.763984 0.12306,2.514054 0.26787,3.889044 0.305,2.896161 0.66566,3.459509 2.63324,4.113032 1.22547,0.407038 2.31204,1.319922 2.8735,2.414179 0.15818,0.30829 0.21242,0.63571 0.12053,0.7276 -0.0919,0.0919 -1.63847,0.16708 -3.43683,0.16708 -3.26349,0 -3.27023,-10e-4 -3.52689,-0.67636 z"
         style="fill:#fcc400;fill-opacity:1;stroke-width:0.264583"
         id="path1017" /></g><rect
       style="fill:#ffffff;stroke-width:3.957;stroke-miterlimit:8.6;paint-order:stroke markers fill"
       id="rect472"
       width="120.60828"
       height="95.550919"
       x="44.695858"
       y="53.726547"
       ry="7.6293945e-06" /></g></svg>
