<?xml version="1.0" encoding="UTF-8" standalone="no"?>
<!-- Created with Inkscape (http://www.inkscape.org/) -->

<svg
   width="74.643417mm"
   height="47.374233mm"
   viewBox="0 0 74.643417 47.374233"
   version="1.1"
   id="svg5"
   xml:space="preserve"
   xmlns:inkscape="http://www.inkscape.org/namespaces/inkscape"
   xmlns:sodipodi="http://sodipodi.sourceforge.net/DTD/sodipodi-0.dtd"
   xmlns="http://www.w3.org/2000/svg"
   xmlns:svg="http://www.w3.org/2000/svg"><sodipodi:namedview
     id="namedview7"
     pagecolor="#505050"
     bordercolor="#eeeeee"
     borderopacity="1"
     inkscape:showpageshadow="0"
     inkscape:pageopacity="0"
     inkscape:pagecheckerboard="0"
     inkscape:deskcolor="#505050"
     inkscape:document-units="mm"
     showgrid="false" /><defs
     id="defs2" /><g
     inkscape:label="Layer 1"
     inkscape:groupmode="layer"
     id="layer1"
     transform="translate(-236.26027,-27.433473)"><path
       d="m 236.26027,74.317664 c 0,-1.11643 1.15996,-2.27009 2.91189,-2.89605 3.7105,-1.32577 4.63665,-2.8196 5.18914,-8.36975 0.42889,-4.308485 0.65107,-5.343776 1.75649,-8.184409 1.96081,-5.03878 6.04707,-9.358413 10.96017,-11.586117 3.15431,-1.430232 5.43457,-1.827371 11.83956,-2.062022 6.49325,-0.237887 7.58046,-0.483381 9.98786,-2.255274 1.3335,-0.98148 3.92753,-3.934034 3.91218,-4.45289 -0.005,-0.174345 -0.17953,-0.614648 -0.3875,-0.97845 -0.49626,-0.868125 -0.49991,-3.266612 -0.006,-4.22093 1.17864,-2.279251 5.32768,-2.543687 7.31069,-0.465939 0.57607,0.603594 0.93174,0.687316 3.94051,0.927555 4.96194,0.396192 5.88385,0.797864 13.09688,5.706234 l 3.96875,2.700684 0.0814,1.11578 0.0814,1.115782 -1.13969,0.0088 -1.1397,0.0088 0.63765,0.530905 c 0.3507,0.292 0.80074,0.622181 1.00008,0.73374 0.30415,0.170209 0.29743,0.358426 -0.0418,1.170234 -1.00706,2.410243 -2.81359,3.538476 -6.88834,4.30199 -2.5033,0.469058 -3.91936,1.044903 -4.70451,1.913114 -0.25954,0.286997 -1.11947,2.146848 -1.91096,4.132998 -1.83681,4.609328 -2.99681,6.312144 -5.83798,8.569875 -2.67491,2.12561 -3.60435,3.67946 -3.77155,6.30533 -0.14709,2.30998 0.2553,3.28623 1.95202,4.73578 2.20797,1.88633 2.07228,2.01291 -2.06432,1.9258 l -3.50574,-0.0738 -1.51283,-3.04271 c -1.33804,-2.69118 -3.05233,-7.38821 -3.52455,-9.65703 l -0.16515,-0.79349 -0.36592,0.6612 c -0.20126,0.36366 -0.37015,1.27569 -0.3753,2.02674 -0.008,1.20956 -0.1076,1.44861 -0.86928,2.09281 -1.65874,1.40291 -6.30719,3.00997 -8.735,3.01987 l -0.99594,0.004 0.68338,-1.03265 c 1.52311,-2.30159 1.87788,-5.71678 0.87287,-8.402893 -0.68398,-1.828109 -2.44247,-3.798181 -4.07538,-4.56574 -1.57809,-0.741788 -2.04434,-0.696759 -0.89216,0.08616 1.65484,1.124501 3.05535,3.361211 3.69556,5.902079 0.64356,2.554194 -0.49647,5.606094 -3.05776,8.185664 l -1.61628,1.62782 3.19082,0.10076 c 2.35867,0.0745 3.41152,0.21914 4.03705,0.55471 0.91766,0.49228 2.0272,1.81919 2.3159,2.76961 l 0.18083,0.59532 h -18.00995 c -17.35378,-2e-5 -18.00949,-0.0179 -18.00949,-0.49006 z m 65.03458,-36.339962 c 0.45486,-0.454854 0.39155,-1.68732 -0.11256,-2.19143 -0.65191,-0.651915 -1.98269,-0.420082 -2.45636,0.427921 -0.34873,0.624324 -0.34205,0.769368 0.064,1.389062 0.33626,0.513199 0.67736,0.691947 1.32041,0.691947 0.47686,0 1.0099,-0.142875 1.18452,-0.3175 z m -9.21316,36.153632 c -0.14144,-0.37199 -0.86865,-1.32293 -1.61603,-2.11317 -1.31393,-1.38929 -1.36318,-1.49695 -1.48896,-3.25495 -0.1839,-2.57018 0.18499,-3.45467 2.1663,-5.19417 0.91547,-0.80374 1.74059,-1.46134 1.83359,-1.46134 0.093,0 0.17116,0.62507 0.17368,1.38906 0.003,0.76398 0.12306,2.51405 0.26787,3.88904 0.305,2.89617 0.66566,3.45951 2.63324,4.11304 1.22547,0.40703 2.31204,1.31992 2.8735,2.41418 0.15818,0.30828 0.21242,0.63571 0.12053,0.7276 -0.0919,0.0919 -1.63847,0.16708 -3.43683,0.16708 -3.26349,0 -3.27023,-0.001 -3.52689,-0.67637 z"
       style="fill:#fcc400;fill-opacity:1;stroke-width:0.264583"
       id="path359" /></g></svg>
